<svg xmlns="http://www.w3.org/2000/svg" width="100" height="100" viewBox="0 0 100 100">
    <circle fill="#ae1f00" cx="50" cy="50" r="50"/>
    <path fill="#ffffff" d="M49.816 81.383a7.6 7.6 0 0 1-6.666-4.666h6.666v4.667-.001z"/>
    <path fill="#ffe9b3" d="M49.816 76.666h6.668c-1.125 2.72-3.727 4.541-6.667 4.667v-4.667h-.001zm20.367-3.333H49.85V17.85c1.763.061 3.173 1.486 3.216 3.25v3.484c9.517 1.4 16.801 8.833 16.801 17.816v15c0 13.8 5.15 10.784 5.717 12.7.766 2.55-2.434 3.234-5.4 3.234h-.001z"/>
    <path fill="#ffffff" d="M24.15 70.084c.566-1.917 5.716 1.1 5.716-12.7v-15c0-8.984 7.267-16.417 16.784-17.817V21.1c.043-1.764 1.453-3.189 3.216-3.25v55.484H29.534c-2.967 0-6.2-.684-5.384-3.25z"/>
</svg>
