<svg xmlns="http://www.w3.org/2000/svg" width="100" height="100" viewBox="0 0 100 100">
    <circle fill="#ae1f00" cx="50" cy="50" r="50"/>
    <path fill="#ffe9b3" d="M49.819 73.85h6.261c-1.056 2.583-3.5 4.312-6.26 4.432V73.85h-.001zm19.124-3.165H49.851V18c1.655.058 2.979 1.411 3.02 3.086v3.308c8.936 1.329 15.776 8.388 15.776 16.918v14.244c0 13.104 4.836 10.24 5.368 12.06.719 2.421-2.285 3.071-5.071 3.071h-.001v-.001z"/>
    <path fill="#ffffff" d="M49.904 73.85h-6.261c1.056 2.583 3.5 4.312 6.26 4.432V73.85h.001zM30.78 70.685h19.092V18c-1.655.058-2.979 1.411-3.02 3.086v3.308c-8.936 1.329-15.776 8.388-15.776 16.918v14.244c0 13.104-4.836 10.24-5.368 12.06-.719 2.421 2.285 3.071 5.071 3.071h.001v-.001z"/>
</svg>
