<svg xmlns="http://www.w3.org/2000/svg" width="100%" height="100%" viewBox="0 0 54 54">
    <path d="M47.813 0H5.625A5.6 5.6 0 0 0 0 5.625v42.188a5.6 5.6 0 0 0 5.625 5.625h42.188c3.062 0 5.625-2.5 5.625-5.625V5.625A5.6 5.6 0 0 0 47.813 0M26.625 32.563c1.75 0 3.625-.688 5.438-2.313l2.5 2.875c-2.625 2.125-5.625 3.313-8.625 3.313-5.938 0-9.688-3.938-8.813-9.5s5.938-9.5 11.875-9.5c2.875 0 5.563 1.125 7.438 3.187l-3.5 2.875c-1-1.312-2.688-2.187-4.563-2.187-3.562 0-6.312 2.312-6.875 5.625-.5 3.312 1.5 5.625 5.125 5.625" fill="#e5422b"/>
</svg>
