<svg xmlns="http://www.w3.org/2000/svg" width="100" height="100" viewBox="0 0 100 100">
    <circle fill="#ae1f00" cx="50" cy="50" r="50"/>
    <path fill="#ffffff" d="M50 78.25c-3.59 0-6-2.75-6.5-4.4h13c-.5 1.65-2.91 4.4-6.5 4.4zm-19.665-7.565v.002h-.001c-2.869 0-5.963-.65-5.223-3.071.548-1.82 5.529 1.044 5.529-12.06V41.312c0-8.53 7.045-15.589 16.249-16.918v-3.308C46.932 19.411 48.295 18.058 50 18l.08.004c1.667.096 2.989 1.433 3.031 3.082v3.308c9.204 1.329 16.249 8.388 16.249 16.918v14.244c0 13.104 4.981 10.24 5.529 12.06.74 2.421-2.354 3.071-5.223 3.071l-.001-.001v-.001h-39.33z"/>
    <path fill="#ffe9b3" d="M50 73.85h6.5c-.5 1.65-2.91 4.4-6.5 4.4v-4.4zM50 18l.08.004c1.667.096 2.989 1.433 3.031 3.082v3.308c9.204 1.329 16.249 8.388 16.249 16.918v14.244c0 13.104 4.981 10.24 5.529 12.06.74 2.421-2.354 3.071-5.223 3.071l-.001-.001v-.001H50V18z"/>
</svg>
